<svg preserveAspectRatio="none" width="100%" height="100%" overflow="visible" style="display: block;" viewBox="0 0 22 22" fill="none" xmlns="http://www.w3.org/2000/svg">
<g id="palmtree">
<path id="Vector" d="M9.16652 7.33353H5.49956L4.58282 6.41682L3.66608 7.33353H1.8326C1.8326 4.80342 4.08778 2.75 6.87467 2.75C9.66156 2.75 11.9167 4.80342 11.9167 7.33353C12.3751 9.16694 14.667 15.1255 12.8335 20.1674H9.16652C9.92741 18.334 10.5416 16.5006 10.0833 14.2088M11.9167 6.54529C12.845 5.85899 13.9709 5.4923 15.1253 5.50024C17.9122 5.50024 20.1674 7.55366 20.1674 10.0838H17.4172L16.5004 9.16706L15.5837 10.0838H12.8335M5.3988 8.90151C3.42781 10.8724 3.2903 13.9159 5.07794 15.7126L8.96492 11.8166L12.201 8.58067C10.4134 6.78392 7.36979 6.9306 5.3988 8.90151Z" stroke="var(--stroke-0, white)" stroke-width="2" stroke-linecap="round"/>
</g>
</svg>
